<?xml version="1.0" encoding="UTF-8" standalone="no"?>
<svg width="31px" height="31px" viewBox="0 0 31 31" version="1.1" xmlns="http://www.w3.org/2000/svg" xmlns:xlink="http://www.w3.org/1999/xlink">
    <!-- Generator: Sketch 48.2 (47327) - http://www.bohemiancoding.com/sketch -->
    <title>fb</title>
    <desc>Created with Sketch.</desc>
    <defs></defs>
    <g id="lotstravels_index" stroke="none" stroke-width="1" fill="none" fill-rule="evenodd" transform="translate(-360.000000, -5174.000000)">
        <g id="fb" transform="translate(361.000000, 5175.000000)">
            <circle id="Oval-Copy-5" stroke="#FFFFFF" opacity="0.496773098" cx="14.5" cy="14.5" r="14.5"></circle>
            <path d="M12.625,20 L12.625,13.90625 L11,13.90625 L11,11.7125 L12.625,11.7125 L12.625,9.84375 C12.625,8.38125 13.6,7 15.79375,7 C16.6875,7 17.3375,7.08125 17.3375,7.08125 L17.25625,9.1125 L15.875,9.1125 C15.0625,9.1125 14.98125,9.4375 14.98125,10.0875 C14.98125,10.575 14.98125,9.03125 14.98125,11.7125 L17.3375,11.7125 L17.25625,13.90625 L14.98125,13.90625 L14.98125,20 L12.625,20 L12.625,20 Z" id="Shape-Copy" fill="#81839A"></path>
        </g>
    </g>
</svg>