<?xml version="1.0" encoding="UTF-8" standalone="no"?>
<svg width="20px" height="4px" viewBox="0 0 20 4" version="1.1" xmlns="http://www.w3.org/2000/svg" xmlns:xlink="http://www.w3.org/1999/xlink">
    <!-- Generator: Sketch 48.2 (47327) - http://www.bohemiancoding.com/sketch -->
    <title>more_btn</title>
    <desc>Created with Sketch.</desc>
    <defs></defs>
    <g id="lotstravels_index" stroke="none" stroke-width="1" fill="none" fill-rule="evenodd" transform="translate(-361.000000, -5127.000000)">
        <g id="more_btn" transform="translate(361.000000, 5127.000000)" fill="#84A016">
            <path d="M9.73828125,3.50390625 C9.26952891,3.50390625 8.85937676,3.34765781 8.5078125,3.03515625 C8.15624824,2.72265469 7.98046875,2.29297148 7.98046875,1.74609375 C7.98046875,1.26171633 8.15038893,0.849611074 8.49023438,0.509765625 C8.83007982,0.169920176 9.24609129,0 9.73828125,0 C10.2304712,0 10.6503889,0.169920176 10.9980469,0.509765625 C11.3457049,0.849611074 11.5195312,1.26171633 11.5195312,1.74609375 C11.5195312,2.30078402 11.3398455,2.73242033 10.9804688,3.04101562 C10.621092,3.34961092 10.2070336,3.50390625 9.73828125,3.50390625 Z M1.74609375,3.50390625 C1.27734141,3.50390625 0.869142363,3.34961092 0.521484375,3.04101562 C0.173826387,2.73242033 0,2.30078402 0,1.74609375 C0,1.25390379 0.16796707,0.83984543 0.50390625,0.50390625 C0.83984543,0.16796707 1.25390379,0 1.74609375,0 C2.23828371,0 2.65820139,0.169920176 3.00585938,0.509765625 C3.35351736,0.849611074 3.52734375,1.26171633 3.52734375,1.74609375 C3.52734375,2.30078402 3.34765805,2.73242033 2.98828125,3.04101562 C2.62890445,3.34961092 2.21484609,3.50390625 1.74609375,3.50390625 Z M17.7304688,3.50390625 C17.2695289,3.50390625 16.8613299,3.34765781 16.5058594,3.03515625 C16.1503888,2.72265469 15.9726562,2.29297148 15.9726562,1.74609375 C15.9726562,1.26171633 16.1425764,0.849611074 16.4824219,0.509765625 C16.8222673,0.169920176 17.2382788,0 17.7304688,0 C18.2226587,0 18.6425764,0.169920176 18.9902344,0.509765625 C19.3378924,0.849611074 19.5117188,1.26171633 19.5117188,1.74609375 C19.5117188,2.29297148 19.3339862,2.72265469 18.9785156,3.03515625 C18.6230451,3.34765781 18.2070336,3.50390625 17.7304688,3.50390625 Z" id="…"></path>
        </g>
    </g>
</svg>