<?xml version="1.0" encoding="UTF-8" standalone="no"?>
<svg width="20px" height="12px" viewBox="0 0 20 12" version="1.1" xmlns="http://www.w3.org/2000/svg" xmlns:xlink="http://www.w3.org/1999/xlink">
    <!-- Generator: Sketch 48.2 (47327) - http://www.bohemiancoding.com/sketch -->
    <title>Owl</title>
    <desc>Created with Sketch.</desc>
    <defs></defs>
    <g id="lotstravels_index" stroke="none" stroke-width="1" fill="none" fill-rule="evenodd" transform="translate(-1536.000000, -15.000000)">
        <g id="Owl" transform="translate(1536.000000, 15.000000)">
            <g id="Group">
                <path d="M10.74675,8.4 C11.6055,10.72575 14.193,11.91825 16.52025,11.06025 C18.846,10.19775 20.03925,7.6125 19.1775,5.28525 C18.318,2.955 15.73425,1.76625 13.404,2.62575 C11.07525,3.48675 9.8865,6.07125 10.74675,8.4 Z" id="Shape" fill="#FFFFFF"></path>
                <circle id="Oval" fill="#FFFFFF" cx="5.00025" cy="6.825" r="4.494"></circle>
                <path d="M5.766,6.77775 C5.766,7.236 5.394,7.611 4.93575,7.611 C4.476,7.611 4.10475,7.236 4.10475,6.77775 C4.10475,6.32025 4.476,5.94975 4.93575,5.94975 C5.394,5.949 5.766,6.32025 5.766,6.77775 Z" id="Shape" fill="#BE3538"></path>
                <path d="M15.7815,6.77775 C15.7815,7.236 15.411,7.611 14.95275,7.611 C14.4915,7.611 14.12175,7.236 14.12175,6.77775 C14.12175,6.32025 14.4915,5.94975 14.95275,5.94975 C15.411,5.949 15.7815,6.32025 15.7815,6.77775 Z" id="Shape" fill="#589442"></path>
                <path d="M2.46675,6.77775 C2.46675,8.1405 3.57525,9.24675 4.93725,9.24675 C6.29625,9.24675 7.404,8.14125 7.404,6.77775 C7.404,5.41875 6.2955,4.31175 4.93725,4.31175 C3.57525,4.3125 2.46675,5.418 2.46675,6.77775 Z M3.318,6.77775 C3.318,5.88675 4.04625,5.1615 4.93875,5.1615 C5.82975,5.1615 6.55425,5.8875 6.55425,6.77775 C6.55425,7.67175 5.82975,8.39775 4.93875,8.39775 C4.04625,8.3985 3.318,7.6725 3.318,6.77775 Z" id="Shape" fill="#000000"></path>
                <path d="M12.483,6.77775 C12.483,8.1405 13.59,9.24675 14.952,9.24675 C16.31175,9.24675 17.418,8.14125 17.418,6.77775 C17.418,5.41875 16.31175,4.31175 14.952,4.31175 C13.59075,4.3125 12.483,5.418 12.483,6.77775 Z M13.33425,6.77775 C13.33425,5.88675 14.06025,5.1615 14.9535,5.1615 C15.8445,5.1615 16.56825,5.8875 16.56825,6.77775 C16.56825,7.67175 15.8445,8.39775 14.9535,8.39775 C14.0595,8.3985 13.33425,7.6725 13.33425,6.77775 Z" id="Shape" fill="#000000"></path>
                <g transform="translate(4.500000, 0.750000)" id="Shape">
                    <path d="M7.13775,8.2815 C7.54275,8.89875 8.10525,9.39825 8.79225,9.71475 C9.7605,10.1625 10.845,10.20375 11.84475,9.83625 C13.90875,9.07125 14.96925,6.774 14.2065,4.7115 C13.44375,2.6475 11.14575,1.5885 9.081,2.34975 C8.08125,2.71875 7.28475,3.456 6.83775,4.42425 C6.53925,5.07225 6.43875,5.7735 6.5055,6.46575"></path>
                    <path d="M8.73075,1.4025 C9.25125,1.2105 9.78375,1.1175 10.3095,1.10325 C8.877,0.46125 7.2555,0.1365 5.45925,0.1365 C3.6765,0.1365 2.03175,0.4695 0.6,1.08075 C3.19125,1.1325 5.298,3.162 5.4795,5.7195 C5.52375,5.13225 5.667,4.55175 5.9205,4.002 C6.47925,2.787 7.47825,1.8645 8.73075,1.4025 Z" fill="#FFD881"></path>
                </g>
                <path d="M18.98025,3.87225 C19.21425,2.8695 19.95825,1.86525 19.95825,1.86525 L16.6215,1.863 C14.75025,0.65475 12.4785,0.01425 9.96075,0.01425 C7.34775,0.01425 4.98825,0.6705 3.1275,1.887 L0,1.88925 C0,1.88925 0.735,2.88225 0.97275,3.87825 C0.3645,4.70475 0.003,5.72175 0.003,6.825 C0.003,9.57975 2.2455,11.82225 5.00175,11.82225 C6.5775,11.82225 7.98225,11.088 8.89875,9.9465 L9.963,11.54025 L11.0355,9.933 C11.51775,10.5465 12.14025,11.0445 12.87,11.382 C14.0835,11.94 15.44325,11.9955 16.695,11.53275 C19.281,10.5765 20.6085,7.69425 19.65225,5.1105 C19.48425,4.656 19.25475,4.2435 18.98025,3.87225 Z M9.96,0.8865 C11.75625,0.8865 13.37775,1.21125 14.81025,1.85325 C14.28375,1.8675 13.752,1.96125 13.2315,2.1525 C11.979,2.6145 10.98,3.537 10.42275,4.75125 C10.16925,5.301 10.026,5.8815 9.98175,6.46875 C9.79875,3.912 7.692,1.8825 5.10075,1.83 C6.53175,1.21875 8.1765,0.8865 9.96,0.8865 Z M8.304,9.0585 C7.58625,10.116 6.37275,10.81425 5.00025,10.81425 C2.79975,10.81425 1.0095,9.02175 1.0095,6.825 C1.0095,4.62375 2.8005,2.835 5.00025,2.835 C7.2,2.835 8.99025,4.62375 8.99025,6.825 C8.99025,6.95925 8.964,7.086 8.9505,7.21575 C8.88375,7.8915 8.667,8.52375 8.304,9.0585 Z M16.34475,10.58625 C15.345,10.95525 14.2605,10.91325 13.29225,10.46625 C12.60525,10.14825 12.04275,9.65025 11.63775,9.0315 C11.47275,8.78025 11.32725,8.514 11.22075,8.2245 C11.09925,7.896 11.0385,7.557 11.0055,7.21575 C10.93875,6.5235 11.03925,5.82225 11.33775,5.17425 C11.78475,4.206 12.58125,3.46875 13.581,3.09975 C15.64575,2.3385 17.94375,3.3975 18.7065,5.4615 C19.4685,7.52475 18.40875,9.82275 16.34475,10.58625 Z" id="Shape" fill="#000000"></path>
            </g>
        </g>
    </g>
</svg>