<?xml version="1.0" encoding="UTF-8" standalone="no"?>
<svg width="14px" height="14px" viewBox="0 0 14 14" version="1.1" xmlns="http://www.w3.org/2000/svg" xmlns:xlink="http://www.w3.org/1999/xlink">
    <!-- Generator: Sketch 48.2 (47327) - http://www.bohemiancoding.com/sketch -->
    <title>phone-call</title>
    <desc>Created with Sketch.</desc>
    <defs></defs>
    <g id="lotstravels_index" stroke="none" stroke-width="1" fill="none" fill-rule="evenodd" transform="translate(-362.000000, -13.000000)">
        <g id="phone-call" transform="translate(362.000000, 13.000000)" fill="#84A016">
            <path d="M13.4683555,10.9528125 C13.7957695,11.2802813 13.7957695,11.8130469 13.4683281,12.1404883 L12.7549297,12.8538867 C12.5963633,13.0124258 12.3854883,13.0998164 12.1611328,13.0998164 C12.0810156,13.0998164 12.0027578,13.0881953 11.9278359,13.0666484 L11.7781562,13.2163281 C11.2582695,13.7361875 10.5330039,14 9.66311719,14 C9.13256641,14 8.5483125,13.9019453 7.92378125,13.7040586 C6.36909766,13.2113516 4.72215625,12.1493203 3.28639062,10.7135547 C1.85057031,9.27781641 0.788539062,7.630875 0.295886719,6.07619141 C-0.207210938,4.48836719 -0.0648320313,3.16030859 0.694039062,2.31678125 C0.705386719,2.30223438 0.933542969,2.07189063 0.933542969,2.07189063 C0.851921875,1.78765234 0.922578125,1.46849609 1.14608594,1.24498828 L1.85948437,0.531589844 C2.01810547,0.373050781 2.22892578,0.285660156 2.45328125,0.285660156 C2.67758203,0.285660156 2.88848437,0.372996094 3.04707812,0.531589844 L5.79028516,3.27482422 C6.11772656,3.60229297 6.11772656,4.13503125 5.79028516,4.46247266 L5.07694141,5.17581641 C4.91317969,5.33952344 4.69814844,5.42136328 4.48308984,5.42136328 C4.40455859,5.42136328 4.32608203,5.41020703 4.25003906,5.38835938 L3.98064844,5.65772266 C3.98064844,5.65772266 3.98059375,5.65772266 3.98059375,5.65777734 C3.78946094,5.84926563 4.0831875,7.03942969 5.52185156,8.47806641 C6.96073437,9.91694922 8.15108984,10.2105938 8.34222266,10.0192422 L8.34244141,10.0190234 L8.61158594,9.74987891 C8.52996484,9.46561328 8.60062109,9.14648438 8.82412891,8.92297656 L9.53747266,8.20963281 C9.86496875,7.88219141 10.3976797,7.88219141 10.7251484,8.20963281 L13.4683555,10.9528125 Z" id="Shape"></path>
            <path d="M10.6317422,3.3683125 C9.83305859,2.56962891 8.77121875,2.12980469 7.64186719,2.12983203 C7.40996484,2.12983203 7.22197656,2.31782031 7.22197656,2.54972266 C7.22197656,2.781625 7.40999219,2.96961328 7.64186719,2.96961328 C8.54694531,2.96955859 9.39785547,3.32207422 10.0379453,3.96210938 C10.6779531,4.60211719 11.0303867,5.45302734 11.0303594,6.35807813 C11.0303594,6.58998047 11.2183477,6.77802344 11.45025,6.77802344 C11.682125,6.77802344 11.8701406,6.59003516 11.8701406,6.3581875 C11.870168,5.22878125 11.4303164,4.16699609 10.6317422,3.3683125 Z" id="Shape"></path>
            <path d="M12.1377539,1.86230078 C10.9367344,0.661335937 9.34002344,-5.46875e-05 7.64170313,0 C7.40980078,0 7.2218125,0.188015625 7.2218125,0.419890625 C7.2218125,0.651792969 7.40982813,0.83978125 7.64170313,0.83978125 C9.11572266,0.839726562 10.5015313,1.41378125 11.5439023,2.45609766 C12.5861914,3.49838672 13.1602188,4.88419531 13.1601914,6.35821484 C13.1601914,6.59011719 13.3481797,6.77810547 13.580082,6.77810547 C13.811957,6.77810547 13.9999727,6.59011719 13.9999727,6.35826953 C14.0000273,4.65989453 13.3386367,3.06323828 12.1377539,1.86230078 Z" id="Shape"></path>
            <path d="M9.3386668,4.94306835 C8.89154487,4.49595613 8.32119533,4.25969141 7.68906477,4.25969141 L7.68888235,4.25969141 C7.43102562,4.25975221 7.22199779,4.4687451 7.2220586,4.72662664 C7.2221194,4.98447777 7.43117764,5.19350106 7.68900396,5.19344025 L7.68915598,5.19344025 C8.07358477,5.19344025 8.40647869,5.33135002 8.6784733,5.60330832 C8.9466066,5.8714662 9.08835027,6.21365633 9.08828946,6.59275618 C9.08822865,6.85060731 9.29731729,7.0596306 9.55511321,7.05969141 L9.55517402,7.05969141 C9.81303075,7.05969141 10.0219978,6.85066812 10.0220586,6.59287779 C10.022089,5.96073055 9.78581913,5.39024138 9.3386668,4.94306835 Z" id="Shape"></path>
        </g>
    </g>
</svg>