<?xml version="1.0" encoding="UTF-8" standalone="no"?>
<svg width="31px" height="31px" viewBox="0 0 31 31" version="1.1" xmlns="http://www.w3.org/2000/svg" xmlns:xlink="http://www.w3.org/1999/xlink">
    <!-- Generator: Sketch 48.2 (47327) - http://www.bohemiancoding.com/sketch -->
    <title>tripadviser</title>
    <desc>Created with Sketch.</desc>
    <defs></defs>
    <g id="lotstravels_index" stroke="none" stroke-width="1" fill="none" fill-rule="evenodd" transform="translate(-440.000000, -5174.000000)">
        <g id="tripadviser" transform="translate(441.000000, 5175.000000)">
            <path d="M11.805,15.648125 C11.805,16.03 11.495,16.3425 11.113125,16.3425 C10.73,16.3425 10.420625,16.03 10.420625,15.648125 C10.420625,15.266875 10.73,14.958125 11.113125,14.958125 C11.495,14.9575 11.805,15.266875 11.805,15.648125 Z" id="Shape" fill="#81839A"></path>
            <path d="M20.15125,15.648125 C20.15125,16.03 19.8425,16.3425 19.460625,16.3425 C19.07625,16.3425 18.768125,16.03 18.768125,15.648125 C18.768125,15.266875 19.07625,14.958125 19.460625,14.958125 C19.8425,14.9575 20.15125,15.266875 20.15125,15.648125 Z" id="Shape" fill="#81839A"></path>
            <path d="M9.055625,15.648125 C9.055625,16.78375 9.979375,17.705625 11.114375,17.705625 C12.246875,17.705625 13.17,16.784375 13.17,15.648125 C13.17,14.515625 12.24625,13.593125 11.114375,13.593125 C9.979375,13.59375 9.055625,14.515 9.055625,15.648125 Z M9.765,15.648125 C9.765,14.905625 10.371875,14.30125 11.115625,14.30125 C11.858125,14.30125 12.461875,14.90625 12.461875,15.648125 C12.461875,16.393125 11.858125,16.998125 11.115625,16.998125 C10.371875,16.99875 9.765,16.39375 9.765,15.648125 Z" id="Shape" fill="#81839A"></path>
            <path d="M17.4025,15.648125 C17.4025,16.78375 18.325,17.705625 19.46,17.705625 C20.593125,17.705625 21.515,16.784375 21.515,15.648125 C21.515,14.515625 20.593125,13.593125 19.46,13.593125 C18.325625,13.59375 17.4025,14.515 17.4025,15.648125 Z M18.111875,15.648125 C18.111875,14.905625 18.716875,14.30125 19.46125,14.30125 C20.20375,14.30125 20.806875,14.90625 20.806875,15.648125 C20.806875,16.393125 20.20375,16.998125 19.46125,16.998125 C18.71625,16.99875 18.111875,16.39375 18.111875,15.648125 Z" id="Shape" fill="#81839A"></path>
            <g id="Group" transform="translate(10.750000, 10.625000)" fill="#040836">
                <path d="M7.275625,1.16875 C7.709375,1.00875 8.153125,0.93125 8.59125,0.919375 C7.3975,0.384375 6.04625,0.11375 4.549375,0.11375 C3.06375,0.11375 1.693125,0.39125 0.5,0.900625 C2.659375,0.94375 4.415,2.635 4.56625,4.76625 C4.603125,4.276875 4.7225,3.793125 4.93375,3.335 C5.399375,2.3225 6.231875,1.55375 7.275625,1.16875 Z" id="Shape"></path>
            </g>
            <g id="Group-7">
                <circle id="Oval-Copy-4" stroke="#FFFFFF" opacity="0.509227808" cx="14.5" cy="14.5" r="14.5"></circle>
                <path d="M22.816875,13.226875 C23.011875,12.39125 23.631875,11.554375 23.631875,11.554375 L20.85125,11.5525 C19.291875,10.545625 17.39875,10.011875 15.300625,10.011875 C13.123125,10.011875 11.156875,10.55875 9.60625,11.5725 L7,11.574375 C7,11.574375 7.6125,12.401875 7.810625,13.231875 C7.30375,13.920625 7.0025,14.768125 7.0025,15.6875 C7.0025,17.983125 8.87125,19.851875 11.168125,19.851875 C12.48125,19.851875 13.651875,19.24 14.415625,18.28875 L15.3025,19.616875 L16.19625,18.2775 C16.598125,18.78875 17.116875,19.20375 17.725,19.485 C18.73625,19.95 19.869375,19.99625 20.9125,19.610625 C23.0675,18.81375 24.17375,16.411875 23.376875,14.25875 C23.236875,13.88 23.045625,13.53625 22.816875,13.226875 Z M15.3,10.73875 C16.796875,10.73875 18.148125,11.009375 19.341875,11.544375 C18.903125,11.55625 18.46,11.634375 18.02625,11.79375 C16.9825,12.17875 16.15,12.9475 15.685625,13.959375 C15.474375,14.4175 15.355,14.90125 15.318125,15.390625 C15.165625,13.26 13.41,11.56875 11.250625,11.525 C12.443125,11.015625 13.81375,10.73875 15.3,10.73875 Z M13.92,17.54875 C13.321875,18.43 12.310625,19.011875 11.166875,19.011875 C9.333125,19.011875 7.84125,17.518125 7.84125,15.6875 C7.84125,13.853125 9.33375,12.3625 11.166875,12.3625 C13,12.3625 14.491875,13.853125 14.491875,15.6875 C14.491875,15.799375 14.47,15.905 14.45875,16.013125 C14.403125,16.57625 14.2225,17.103125 13.92,17.54875 Z M20.620625,18.821875 C19.7875,19.129375 18.88375,19.094375 18.076875,18.721875 C17.504375,18.456875 17.035625,18.041875 16.698125,17.52625 C16.560625,17.316875 16.439375,17.095 16.350625,16.85375 C16.249375,16.58 16.19875,16.2975 16.17125,16.013125 C16.115625,15.43625 16.199375,14.851875 16.448125,14.311875 C16.820625,13.505 17.484375,12.890625 18.3175,12.583125 C20.038125,11.94875 21.953125,12.83125 22.58875,14.55125 C23.22375,16.270625 22.340625,18.185625 20.620625,18.821875 Z" id="Shape" fill="#81839A"></path>
            </g>
        </g>
    </g>
</svg>