<?xml version="1.0" encoding="UTF-8" standalone="no"?>
<svg width="31px" height="31px" viewBox="0 0 31 31" version="1.1" xmlns="http://www.w3.org/2000/svg" xmlns:xlink="http://www.w3.org/1999/xlink">
    <!-- Generator: Sketch 48.2 (47327) - http://www.bohemiancoding.com/sketch -->
    <title>tw</title>
    <desc>Created with Sketch.</desc>
    <defs></defs>
    <g id="lotstravels_index" stroke="none" stroke-width="1" fill="none" fill-rule="evenodd" transform="translate(-400.000000, -5174.000000)">
        <g id="tw" transform="translate(401.000000, 5175.000000)">
            <circle id="Oval-Copy-3" stroke="#FFFFFF" opacity="0.505095109" cx="14.5" cy="14.5" r="14.5"></circle>
            <path d="M21,10.2493828 C20.521527,10.4613978 20.0081324,10.605184 19.4687165,10.6693769 C20.0194968,10.3395545 20.4411053,9.81640983 20.6409275,9.19495783 C20.1242829,9.50039461 19.5540025,9.72218092 18.9463578,9.84240987 C18.4597704,9.32332242 17.7676467,9 16.9999657,9 C15.5271822,9 14.3330283,10.1941539 14.3330283,11.6661302 C14.3330283,11.8748952 14.3565855,12.0787959 14.4020856,12.273775 C12.1860068,12.1624676 10.2209432,11.1007355 8.90575311,9.48739459 C8.67585241,9.8805815 8.54506625,10.338726 8.54506625,10.8277775 C8.54506625,11.7530519 9.01623205,12.5694617 9.73110577,13.0471063 C9.2940544,13.0324919 8.88300308,12.9122629 8.52314465,12.7124195 L8.52314465,12.7457267 C8.52314465,14.0373595 9.44272621,15.1153417 10.6620517,15.3606852 C10.438651,15.4207997 10.2030788,15.454107 9.95937085,15.454107 C9.78716305,15.454107 9.62062683,15.4370497 9.45734062,15.4045497 C9.79689182,16.4646674 10.7814735,17.2355772 11.948013,17.2567128 C11.0357386,17.9715866 9.88544916,18.3964451 8.6360664,18.3964451 C8.42080134,18.3964451 8.20876505,18.3834451 8,18.3598878 C9.1803467,19.1178188 10.5816513,19.5597346 12.087742,19.5597346 C16.9935082,19.5597346 19.6750812,15.496357 19.6750812,11.9723954 L19.6661383,11.6271514 C20.1900902,11.2534432 20.6433703,10.783913 21,10.2493828 Z" id="Shape-Copy-2" fill="#82849B"></path>
        </g>
    </g>
</svg>